# xmcd
#
# Track frame offsets: 
#        150
#        19226
#        38817
#        60759
#        81515
#        105225
#        129300
#        147487
#        165795
#        188811
#
# Disc length: 2726 seconds
#
# Revision: 0
# Processed by: cddbd v1.5.2PL0 Copyright (c) Steve Scherf et al.
# Submitted via: ExactAudioCopy v1.0b3
#
DISCID=740aa40a
DTITLE=Mong Thi - Nho Anh
DYEAR=1999
DGENRE=
TTITLE0=Tuoi hoc tro
TTITLE1=Ca phe mot minh
TTITLE2=Tren quang duong mon
TTITLE3=Thuo ban dau
TTITLE4=Nho anh
TTITLE5=Hat hiu tinh buon
TTITLE6=Nguoi da quen
TTITLE7=Khuya nay anh di roi
TTITLE8=Gio thoi ben song
TTITLE9=Co be co chiec rang khenh
EXTD=
EXTT0=
EXTT1=
EXTT2=
EXTT3=
EXTT4=
EXTT5=
EXTT6=
EXTT7=
EXTT8=
EXTT9=
PLAYORDER=
